<?xml version="1.0" encoding="UTF-8" standalone="no"?>
<!DOCTYPE svg PUBLIC "-//W3C//DTD SVG 1.1//EN" "http://www.w3.org/Graphics/SVG/1.1/DTD/svg11.dtd">
<svg width="100%" height="100%" viewBox="0 0 17511 3837" version="1.1" xmlns="http://www.w3.org/2000/svg" xmlns:xlink="http://www.w3.org/1999/xlink" xml:space="preserve" xmlns:serif="http://www.serif.com/" style="fill-rule:evenodd;clip-rule:evenodd;stroke-linejoin:round;stroke-miterlimit:2;">
    <g id="Layer_x0020_1" transform="matrix(1,0,0,1,-1286.49,-7985.17)">
        <g id="_2123777089232">
            <path d="M1916.66,9756.31C1916.66,9966.55 1930.2,10060.2 1993.55,10252C2028.88,10359 2097.51,10484.7 2160.61,10575.8L2250.11,10689C2258.56,10698 2260.4,10702.9 2269.57,10712.2C2337.88,10781.2 2405.46,10849.8 2487.11,10903.7C2638.25,11003.4 2754.57,11063.6 2935.94,11109.2C3136.04,11159.6 3368.72,11160.2 3569.04,11110C3640.55,11092 3689.06,11075.8 3754.37,11049.9C3801.99,11031 3823.48,11018.5 3865.62,10997.5C3884.59,10988.1 3901.03,10978.8 3918.98,10969.1L4154.61,10795.7C4188.93,10761 4223.57,10729.3 4254.34,10692.7L4311.02,10624.9C4418.87,10493.9 4509.31,10296.5 4551.32,10129C4605.81,9911.73 4605.38,9679.3 4551.33,9461.83C4541.16,9420.89 4527.19,9374.43 4513.37,9336.19C4505.81,9315.28 4498.3,9298.52 4490.03,9277.73C4481.57,9256.45 4474.27,9237.79 4464.34,9218.07C4445.23,9180.18 4429.3,9146.62 4407.77,9111.03C4365.52,9041.21 4340.87,9003.88 4289.97,8940.75C3796.07,8328.13 2876.18,8272.21 2317.65,8830.73C2265.86,8882.53 2205.93,8948.15 2165.61,9009.45L2101.39,9108.82C2073.07,9155.86 2039.93,9221.69 2018.79,9275.17C2010.75,9295.5 2002.67,9314.24 1995.41,9333.6C1980.63,9373.08 1966.76,9420.49 1956.48,9461.83C1935.44,9546.5 1916.66,9652.87 1916.66,9756.31Z" style="fill:url(#_Linear1);"/>
            <path d="M1404.52,10161.8C1404.52,10210.4 1438.72,10283.9 1466.42,10320.4C1534.95,10410.6 1648.49,10416.7 1741.74,10356.7C1785.81,10328.4 1793.38,10309.6 1807.85,10252.1C1836.2,10139.4 1834.86,9977.64 1834.86,9848.79C1834.86,9800.01 1838.12,9741.08 1832.27,9698.44C1827.31,9662.18 1831.91,9619.09 1831.44,9581.9C1831.22,9563.56 1828.58,9562.32 1827.73,9546.5C1823.23,9463.27 1825.88,9423.51 1779.48,9360.02C1773.83,9352.29 1749.5,9318.58 1749.5,9311.75C1749.5,9214.45 1837.06,9060.7 1885.76,8978.55L2063.01,8721.9C2070.59,8712.39 2072.05,8709.85 2081.12,8700.89L2118.44,8659.96C2133.09,8645.3 2145.14,8637.12 2159.41,8622.69C2198.99,8582.64 2242.86,8546.95 2287,8511.99C2301.63,8500.4 2315.77,8489.19 2330.01,8476.76C2372.08,8440.02 2426.12,8413.21 2476.17,8388.2C2679.9,8286.4 2915.17,8195 3150.77,8195C3320.85,8195 3417.36,8199.25 3583.19,8232.04C3728.16,8260.72 3851.39,8308.81 3977.07,8371.65C4055.34,8410.78 4126.6,8456.17 4194.88,8509.48C4269.05,8567.38 4314.08,8613.92 4380.46,8679.55L4441.32,8750.28C4515.74,8844.11 4574.02,8947.51 4627.93,9054.47C4638.31,9075.05 4646.25,9095.46 4655.27,9116.04C4673.97,9158.68 4689.73,9199.7 4702.95,9246.19C4743.59,9389.07 4672.96,9384.65 4672.96,9542.92L4672.96,10112C4672.96,10316.1 4721.33,10326.1 4854.34,10396.5L4834.52,10536.7C4813.23,10652 4759.45,10787.9 4698.54,10888C4688.37,10904.7 4680.31,10920.6 4670.5,10938.2L4626.14,11014.7C4610.56,11038.7 4586.88,11060.5 4569.3,11082.4C4534.09,11126.1 4448.65,11208 4405.43,11245.7C4224.61,11403.3 3964.13,11506.9 3730.48,11545.2C3639.06,11560.2 3541.35,11577.2 3435.29,11577.2C3429.92,11512.7 3347.86,11435 3250.35,11435C3196.89,11435 3146.91,11461.6 3119.62,11489.2C3102.14,11506.9 3090.64,11518.2 3079.63,11541.7C3035.12,11636.5 3077.98,11758.9 3167.25,11802.6C3230.05,11833.4 3329.48,11830.3 3376.42,11770.9L3436.81,11692.6C3474.31,11642.4 3463.91,11659.9 3532.83,11649.9L3657.89,11636.2C3772.25,11619.5 3892.65,11591.4 3997.67,11556.4C4059.34,11535.8 4114.74,11512.6 4174.02,11487.3C4184.38,11482.9 4188.83,11481.5 4198.8,11476.5C4276.6,11437.6 4343.35,11394.1 4410.82,11343.6C4485.26,11287.9 4539.26,11259 4601.31,11182C4611.45,11169.4 4621.52,11159.3 4632.34,11145.4C4727.81,11023.1 4800.9,10883.9 4853.93,10737.5C4878.81,10668.8 4902.35,10596.3 4917.47,10520.1C4927.34,10470.4 4930.05,10397.9 4971.05,10367.4C5006.91,10340.7 5042.13,10354.6 5073.61,10260.1C5093.68,10199.8 5077.55,10167.6 5151.87,10128.5C5170.22,10118.9 5184.09,10119.7 5193.35,10098.9C5202.79,10077.6 5206.47,10005.7 5206.44,9973.26L5209.99,9624.73C5209.99,9551.9 5160.64,9537.45 5107.96,9509.81C5080.78,9495.55 5090.41,9474.21 5079.83,9427.69C5050.12,9297.14 4950.89,9316 4924.3,9252.46C4918.77,9239.23 4914.78,9227.17 4909.92,9213.5L4861.96,9094.3C4804.82,8955.89 4730.59,8828.32 4645.96,8705.69C4593.48,8629.65 4531.9,8561.93 4471.1,8492.89C4453.15,8472.51 4435.39,8456.92 4414.38,8439.36C4404.52,8431.11 4396.84,8421.9 4387.62,8412.77C4380.53,8405.76 4380.1,8405.95 4372.16,8399.78C4335.96,8371.66 4303.76,8340.94 4266.54,8313.34C4254.94,8304.73 4245.42,8297.9 4233.4,8289.58C4018.5,8140.87 3784.09,8049.35 3524.73,8005.98C3457.67,7994.77 3385.12,7987.91 3311.43,7985.17L3161.78,7985.17C3095.96,7987.6 3031.59,7993.22 2971.85,8001.86C2857.93,8018.33 2761,8046.95 2656.87,8081.65C2593.16,8102.88 2526.74,8126.38 2467.92,8155.88C2452.69,8163.52 2439.14,8170.33 2422.86,8178.4C2351.48,8213.8 2282.1,8257.65 2216.04,8302.33L2141.83,8359.71C2040.23,8442.46 2025.83,8446.08 1935.29,8547.95C1924.52,8560.09 1915.95,8569.57 1905.2,8581.87C1894.33,8594.3 1885.77,8606.21 1875.09,8619.34C1804.63,8705.84 1748.28,8801.91 1691.1,8897.69C1681.83,8913.22 1676.1,8926.27 1667.01,8941.19C1621.23,9016.38 1578.81,9135.35 1550.79,9219.74C1511.4,9338.37 1487.82,9285.39 1440.02,9375.7C1417.06,9419.08 1423.54,9480.11 1382.27,9513.56C1368.31,9524.88 1352.41,9526.89 1337.46,9536.32C1287.04,9568.13 1290.71,9694.14 1290.71,9752.76C1290.71,9842.58 1284.7,9922.7 1287.03,10012.5C1287.99,10049.6 1303.39,10088.7 1321.83,10109.3C1337.57,10126.9 1376.25,10159.4 1404.52,10161.8Z" style="fill:url(#_Linear2);"/>
        </g>
        <g transform="matrix(1,0,0,1,5873.02,10207.6)">
            <g transform="matrix(2333.05,0,0,2333.05,0,0)">
                <path d="M0.074,-0.716L0.488,-0.716C0.557,-0.716 0.61,-0.699 0.647,-0.665C0.684,-0.63 0.702,-0.588 0.702,-0.538C0.702,-0.495 0.689,-0.459 0.663,-0.429C0.645,-0.409 0.619,-0.393 0.585,-0.381C0.637,-0.368 0.675,-0.347 0.699,-0.317C0.723,-0.287 0.735,-0.249 0.735,-0.204C0.735,-0.167 0.727,-0.133 0.709,-0.104C0.692,-0.074 0.669,-0.05 0.639,-0.033C0.62,-0.022 0.592,-0.015 0.555,-0.01C0.505,-0.003 0.472,-0 0.456,-0L0.074,-0L0.074,-0.716ZM0.297,-0.435L0.393,-0.435C0.428,-0.435 0.452,-0.441 0.465,-0.453C0.479,-0.465 0.485,-0.482 0.485,-0.504C0.485,-0.525 0.479,-0.542 0.465,-0.553C0.452,-0.565 0.428,-0.571 0.395,-0.571L0.297,-0.571L0.297,-0.435ZM0.297,-0.154L0.41,-0.154C0.448,-0.154 0.475,-0.161 0.49,-0.174C0.506,-0.188 0.514,-0.206 0.514,-0.229C0.514,-0.25 0.506,-0.267 0.49,-0.28C0.475,-0.292 0.448,-0.299 0.409,-0.299L0.297,-0.299L0.297,-0.154Z" style="fill:rgb(132,134,136);fill-rule:nonzero;"/>
            </g>
            <g transform="matrix(2333.05,0,0,2333.05,1814.72,0)">
                <path d="M0.073,-0.716L0.294,-0.716L0.294,-0.176L0.64,-0.176L0.64,-0L0.073,-0L0.073,-0.716Z" style="fill:rgb(132,134,136);fill-rule:nonzero;"/>
            </g>
            <g transform="matrix(2333.05,0,0,2333.05,3310.47,0)">
                <path d="M0.539,-0.716L0.76,-0.716L0.76,-0.289C0.76,-0.247 0.753,-0.207 0.74,-0.169C0.727,-0.132 0.706,-0.099 0.678,-0.071C0.65,-0.042 0.62,-0.023 0.589,-0.011C0.546,0.005 0.495,0.013 0.435,0.013C0.4,0.013 0.362,0.01 0.321,0.005C0.279,0 0.245,-0.009 0.217,-0.024C0.19,-0.038 0.164,-0.059 0.141,-0.085C0.118,-0.112 0.103,-0.14 0.094,-0.168C0.081,-0.214 0.074,-0.254 0.074,-0.289L0.074,-0.716L0.294,-0.716L0.294,-0.279C0.294,-0.24 0.305,-0.209 0.327,-0.187C0.349,-0.165 0.379,-0.154 0.417,-0.154C0.455,-0.154 0.485,-0.165 0.507,-0.187C0.528,-0.208 0.539,-0.239 0.539,-0.279L0.539,-0.716Z" style="fill:rgb(132,134,136);fill-rule:nonzero;"/>
            </g>
            <g transform="matrix(2333.05,0,0,2333.05,5253.92,0)">
                <path d="M0.073,-0.716L0.666,-0.716L0.666,-0.563L0.294,-0.563L0.294,-0.449L0.639,-0.449L0.639,-0.303L0.294,-0.303L0.294,-0.162L0.676,-0.162L0.676,-0L0.073,-0L0.073,-0.716Z" style="fill:rgb(132,134,136);fill-rule:nonzero;"/>
            </g>
            <g transform="matrix(2333.05,0,0,2333.05,6938.77,0)">
                <path d="M0.073,-0.716L0.294,-0.716L0.294,-0.176L0.64,-0.176L0.64,-0L0.073,-0L0.073,-0.716Z" style="fill:rgb(132,134,136);fill-rule:nonzero;"/>
            </g>
            <g transform="matrix(2333.05,0,0,2333.05,8494.9,0)">
                <rect x="0.082" y="-0.716" width="0.222" height="0.716" style="fill:rgb(132,134,136);fill-rule:nonzero;"/>
            </g>
            <g transform="matrix(2333.05,0,0,2333.05,9402.83,0)">
                <path d="M0.075,-0.716L0.281,-0.716L0.551,-0.32L0.551,-0.716L0.759,-0.716L0.759,-0L0.551,-0L0.283,-0.393L0.283,-0L0.075,-0L0.075,-0.716Z" style="fill:rgb(132,134,136);fill-rule:nonzero;"/>
            </g>
            <g transform="matrix(2333.05,0,0,2333.05,11346.3,0)">
                <path d="M0.073,-0.716L0.666,-0.716L0.666,-0.563L0.294,-0.563L0.294,-0.449L0.639,-0.449L0.639,-0.303L0.294,-0.303L0.294,-0.162L0.676,-0.162L0.676,-0L0.073,-0L0.073,-0.716Z" style="fill:rgb(132,134,136);fill-rule:nonzero;"/>
            </g>
        </g>
        <g transform="matrix(0.964323,0,0,1,-2015.68,1033.13)">
            <g transform="matrix(1,0,0,1,10160,10160)">
                <g transform="matrix(557.31,0,0,557.31,0,0)">
                    <path d="M0.588,-0.251L0.683,-0.227C0.663,-0.149 0.627,-0.09 0.575,-0.049C0.524,-0.008 0.461,0.012 0.386,0.012C0.309,0.012 0.246,-0.003 0.198,-0.035C0.15,-0.066 0.113,-0.112 0.088,-0.171C0.062,-0.231 0.05,-0.295 0.05,-0.363C0.05,-0.438 0.064,-0.503 0.093,-0.558C0.121,-0.614 0.162,-0.656 0.214,-0.685C0.267,-0.714 0.325,-0.728 0.388,-0.728C0.459,-0.728 0.52,-0.71 0.568,-0.673C0.617,-0.637 0.651,-0.586 0.67,-0.52L0.577,-0.498C0.561,-0.55 0.536,-0.588 0.505,-0.611C0.473,-0.635 0.434,-0.647 0.386,-0.647C0.331,-0.647 0.285,-0.634 0.248,-0.607C0.211,-0.581 0.185,-0.546 0.17,-0.501C0.155,-0.457 0.147,-0.411 0.147,-0.364C0.147,-0.303 0.156,-0.25 0.174,-0.204C0.192,-0.159 0.219,-0.125 0.257,-0.103C0.294,-0.08 0.335,-0.069 0.378,-0.069C0.431,-0.069 0.476,-0.084 0.513,-0.115C0.55,-0.145 0.575,-0.191 0.588,-0.251Z" style="fill:rgb(4,167,226);fill-rule:nonzero;"/>
                </g>
            </g>
            <g transform="matrix(1,0,0,1,10953.6,10160)">
                <g transform="matrix(557.31,0,0,557.31,0,0)">
                    <path d="M0.547,-0.716L0.642,-0.716L0.642,-0.302C0.642,-0.23 0.633,-0.173 0.617,-0.131C0.601,-0.089 0.572,-0.054 0.529,-0.028C0.487,-0.001 0.431,0.012 0.362,0.012C0.295,0.012 0.24,0.001 0.197,-0.022C0.155,-0.046 0.124,-0.079 0.106,-0.123C0.088,-0.167 0.079,-0.226 0.079,-0.302L0.079,-0.716L0.173,-0.716L0.173,-0.303C0.173,-0.241 0.179,-0.195 0.191,-0.165C0.202,-0.136 0.222,-0.113 0.25,-0.097C0.278,-0.081 0.313,-0.073 0.354,-0.073C0.423,-0.073 0.473,-0.089 0.502,-0.121C0.532,-0.152 0.547,-0.213 0.547,-0.303L0.547,-0.716Z" style="fill:rgb(4,167,226);fill-rule:nonzero;"/>
                </g>
            </g>
            <g transform="matrix(1,0,0,1,11747.1,10160)">
                <g transform="matrix(557.31,0,0,557.31,0,0)">
                    <path d="M0.045,-0.23L0.134,-0.238C0.139,-0.202 0.148,-0.173 0.164,-0.15C0.179,-0.127 0.203,-0.108 0.236,-0.094C0.268,-0.08 0.305,-0.073 0.346,-0.073C0.382,-0.073 0.414,-0.078 0.441,-0.089C0.469,-0.1 0.49,-0.114 0.503,-0.133C0.517,-0.152 0.523,-0.172 0.523,-0.194C0.523,-0.217 0.517,-0.236 0.504,-0.253C0.491,-0.27 0.469,-0.284 0.439,-0.295C0.42,-0.303 0.378,-0.315 0.312,-0.33C0.246,-0.346 0.2,-0.361 0.174,-0.375C0.14,-0.393 0.114,-0.415 0.097,-0.442C0.081,-0.468 0.072,-0.498 0.072,-0.531C0.072,-0.567 0.083,-0.601 0.103,-0.632C0.124,-0.663 0.153,-0.687 0.193,-0.704C0.232,-0.72 0.276,-0.728 0.324,-0.728C0.377,-0.728 0.424,-0.719 0.465,-0.702C0.505,-0.685 0.536,-0.66 0.558,-0.627C0.58,-0.594 0.592,-0.556 0.593,-0.514L0.502,-0.507C0.498,-0.553 0.481,-0.587 0.453,-0.61C0.425,-0.633 0.383,-0.645 0.328,-0.645C0.271,-0.645 0.229,-0.634 0.203,-0.613C0.177,-0.592 0.164,-0.567 0.164,-0.537C0.164,-0.511 0.173,-0.49 0.191,-0.474C0.21,-0.457 0.257,-0.44 0.334,-0.423C0.411,-0.405 0.464,-0.39 0.493,-0.377C0.534,-0.358 0.565,-0.333 0.585,-0.304C0.605,-0.274 0.615,-0.241 0.615,-0.202C0.615,-0.164 0.604,-0.128 0.582,-0.094C0.56,-0.061 0.529,-0.035 0.488,-0.016C0.447,0.003 0.401,0.012 0.35,0.012C0.285,0.012 0.231,0.003 0.187,-0.016C0.143,-0.035 0.109,-0.063 0.084,-0.101C0.059,-0.139 0.046,-0.182 0.045,-0.23Z" style="fill:rgb(4,167,226);fill-rule:nonzero;"/>
                </g>
            </g>
            <g transform="matrix(1,0,0,1,12509.9,10160)">
                <g transform="matrix(557.31,0,0,557.31,0,0)">
                    <path d="M0.259,-0L0.259,-0.631L0.023,-0.631L0.023,-0.716L0.591,-0.716L0.591,-0.631L0.354,-0.631L0.354,-0L0.259,-0Z" style="fill:rgb(4,167,226);fill-rule:nonzero;"/>
                </g>
            </g>
            <g transform="matrix(1,0,0,1,13231.4,10160)">
                <g transform="matrix(557.31,0,0,557.31,0,0)">
                    <path d="M0.048,-0.349C0.048,-0.467 0.08,-0.56 0.144,-0.628C0.208,-0.695 0.29,-0.729 0.391,-0.729C0.457,-0.729 0.517,-0.713 0.57,-0.681C0.623,-0.65 0.663,-0.606 0.691,-0.549C0.719,-0.493 0.733,-0.429 0.733,-0.357C0.733,-0.284 0.718,-0.219 0.689,-0.162C0.66,-0.105 0.618,-0.061 0.564,-0.032C0.511,-0.003 0.453,0.012 0.391,0.012C0.323,0.012 0.263,-0.004 0.21,-0.037C0.157,-0.069 0.117,-0.114 0.089,-0.17C0.062,-0.226 0.048,-0.286 0.048,-0.349ZM0.146,-0.347C0.146,-0.261 0.169,-0.193 0.216,-0.143C0.262,-0.094 0.32,-0.069 0.39,-0.069C0.461,-0.069 0.52,-0.094 0.566,-0.144C0.612,-0.194 0.635,-0.265 0.635,-0.357C0.635,-0.416 0.625,-0.467 0.606,-0.51C0.586,-0.553 0.557,-0.587 0.519,-0.611C0.481,-0.635 0.439,-0.647 0.392,-0.647C0.325,-0.647 0.267,-0.624 0.219,-0.578C0.17,-0.532 0.146,-0.455 0.146,-0.347Z" style="fill:rgb(4,167,226);fill-rule:nonzero;"/>
                </g>
            </g>
            <g transform="matrix(1,0,0,1,14056,10160)">
                <g transform="matrix(557.31,0,0,557.31,0,0)">
                    <path d="M0.074,-0L0.074,-0.716L0.217,-0.716L0.386,-0.209C0.402,-0.162 0.413,-0.126 0.42,-0.103C0.429,-0.129 0.441,-0.167 0.458,-0.218L0.63,-0.716L0.757,-0.716L0.757,-0L0.666,-0L0.666,-0.599L0.458,-0L0.373,-0L0.166,-0.609L0.166,-0L0.074,-0Z" style="fill:rgb(4,167,226);fill-rule:nonzero;"/>
                </g>
            </g>
            <g transform="matrix(1,0,0,1,14911.3,10160)">
                <g transform="matrix(557.31,0,0,557.31,0,0)">
                    <path d="M0.079,-0L0.079,-0.716L0.597,-0.716L0.597,-0.631L0.174,-0.631L0.174,-0.412L0.57,-0.412L0.57,-0.328L0.174,-0.328L0.174,-0.084L0.613,-0.084L0.613,-0L0.079,-0Z" style="fill:rgb(4,167,226);fill-rule:nonzero;"/>
                </g>
            </g>
            <g transform="matrix(1,0,0,1,15674.1,10160)">
                <g transform="matrix(557.31,0,0,557.31,0,0)">
                    <path d="M0.079,-0L0.079,-0.716L0.396,-0.716C0.46,-0.716 0.508,-0.709 0.542,-0.697C0.575,-0.684 0.601,-0.661 0.621,-0.628C0.641,-0.596 0.651,-0.56 0.651,-0.521C0.651,-0.47 0.634,-0.427 0.602,-0.392C0.569,-0.357 0.518,-0.335 0.449,-0.326C0.474,-0.314 0.493,-0.302 0.506,-0.29C0.534,-0.265 0.56,-0.233 0.585,-0.195L0.709,-0L0.59,-0L0.496,-0.149C0.468,-0.192 0.445,-0.225 0.427,-0.248C0.409,-0.27 0.393,-0.286 0.379,-0.295C0.365,-0.305 0.351,-0.311 0.336,-0.314C0.325,-0.317 0.308,-0.318 0.283,-0.318L0.173,-0.318L0.173,-0L0.079,-0ZM0.173,-0.4L0.377,-0.4C0.42,-0.4 0.454,-0.404 0.479,-0.413C0.503,-0.422 0.521,-0.437 0.534,-0.456C0.547,-0.476 0.553,-0.497 0.553,-0.521C0.553,-0.554 0.541,-0.582 0.516,-0.604C0.492,-0.626 0.453,-0.637 0.4,-0.637L0.173,-0.637L0.173,-0.4Z" style="fill:rgb(4,167,226);fill-rule:nonzero;"/>
                </g>
            </g>
            <g transform="matrix(1,0,0,1,17087.1,10160)">
                <g transform="matrix(557.31,0,0,557.31,0,0)">
                    <path d="M0.588,-0.251L0.683,-0.227C0.663,-0.149 0.627,-0.09 0.575,-0.049C0.524,-0.008 0.461,0.012 0.386,0.012C0.309,0.012 0.246,-0.003 0.198,-0.035C0.15,-0.066 0.113,-0.112 0.088,-0.171C0.062,-0.231 0.05,-0.295 0.05,-0.363C0.05,-0.438 0.064,-0.503 0.093,-0.558C0.121,-0.614 0.162,-0.656 0.214,-0.685C0.267,-0.714 0.325,-0.728 0.388,-0.728C0.459,-0.728 0.52,-0.71 0.568,-0.673C0.617,-0.637 0.651,-0.586 0.67,-0.52L0.577,-0.498C0.561,-0.55 0.536,-0.588 0.505,-0.611C0.473,-0.635 0.434,-0.647 0.386,-0.647C0.331,-0.647 0.285,-0.634 0.248,-0.607C0.211,-0.581 0.185,-0.546 0.17,-0.501C0.155,-0.457 0.147,-0.411 0.147,-0.364C0.147,-0.303 0.156,-0.25 0.174,-0.204C0.192,-0.159 0.219,-0.125 0.257,-0.103C0.294,-0.08 0.335,-0.069 0.378,-0.069C0.431,-0.069 0.476,-0.084 0.513,-0.115C0.55,-0.145 0.575,-0.191 0.588,-0.251Z" style="fill:rgb(4,167,226);fill-rule:nonzero;"/>
                </g>
            </g>
            <g transform="matrix(1,0,0,1,17880.6,10160)">
                <g transform="matrix(557.31,0,0,557.31,0,0)">
                    <path d="M-0.001,-0L0.273,-0.716L0.375,-0.716L0.668,-0L0.561,-0L0.477,-0.217L0.178,-0.217L0.099,-0L-0.001,-0ZM0.205,-0.294L0.448,-0.294L0.373,-0.492C0.35,-0.552 0.333,-0.602 0.322,-0.641C0.313,-0.595 0.3,-0.549 0.284,-0.504L0.205,-0.294Z" style="fill:rgb(4,167,226);fill-rule:nonzero;"/>
                </g>
            </g>
            <g transform="matrix(1,0,0,1,18643.5,10160)">
                <g transform="matrix(557.31,0,0,557.31,0,0)">
                    <path d="M0.079,-0L0.079,-0.716L0.396,-0.716C0.46,-0.716 0.508,-0.709 0.542,-0.697C0.575,-0.684 0.601,-0.661 0.621,-0.628C0.641,-0.596 0.651,-0.56 0.651,-0.521C0.651,-0.47 0.634,-0.427 0.602,-0.392C0.569,-0.357 0.518,-0.335 0.449,-0.326C0.474,-0.314 0.493,-0.302 0.506,-0.29C0.534,-0.265 0.56,-0.233 0.585,-0.195L0.709,-0L0.59,-0L0.496,-0.149C0.468,-0.192 0.445,-0.225 0.427,-0.248C0.409,-0.27 0.393,-0.286 0.379,-0.295C0.365,-0.305 0.351,-0.311 0.336,-0.314C0.325,-0.317 0.308,-0.318 0.283,-0.318L0.173,-0.318L0.173,-0L0.079,-0ZM0.173,-0.4L0.377,-0.4C0.42,-0.4 0.454,-0.404 0.479,-0.413C0.503,-0.422 0.521,-0.437 0.534,-0.456C0.547,-0.476 0.553,-0.497 0.553,-0.521C0.553,-0.554 0.541,-0.582 0.516,-0.604C0.492,-0.626 0.453,-0.637 0.4,-0.637L0.173,-0.637L0.173,-0.4Z" style="fill:rgb(4,167,226);fill-rule:nonzero;"/>
                </g>
            </g>
            <g transform="matrix(1,0,0,1,19437,10160)">
                <g transform="matrix(557.31,0,0,557.31,0,0)">
                    <path d="M0.079,-0L0.079,-0.716L0.597,-0.716L0.597,-0.631L0.174,-0.631L0.174,-0.412L0.57,-0.412L0.57,-0.328L0.174,-0.328L0.174,-0.084L0.613,-0.084L0.613,-0L0.079,-0Z" style="fill:rgb(4,167,226);fill-rule:nonzero;"/>
                </g>
            </g>
        </g>
    </g>
    <defs>
        <linearGradient id="_Linear1" x1="0" y1="0" x2="1" y2="0" gradientUnits="userSpaceOnUse" gradientTransform="matrix(3277.33,-208.97,208.97,3277.33,1930.88,10008)"><stop offset="0" style="stop-color:rgb(51,71,135);stop-opacity:1"/><stop offset="1" style="stop-color:rgb(4,167,226);stop-opacity:1"/></linearGradient>
        <linearGradient id="_Linear2" x1="0" y1="0" x2="1" y2="0" gradientUnits="userSpaceOnUse" gradientTransform="matrix(3277.33,-208.98,208.98,3277.33,1930.88,10008)"><stop offset="0" style="stop-color:rgb(51,71,135);stop-opacity:1"/><stop offset="1" style="stop-color:rgb(4,167,226);stop-opacity:1"/></linearGradient>
    </defs>
</svg>
